<svg width="20" height="20" viewBox="0 0 20 20" fill="none" xmlns="http://www.w3.org/2000/svg">
<path d="M11.6667 1.66797H5.00008C3.15913 1.66797 1.66675 3.16035 1.66675 5.0013V15.0013C1.66675 16.8423 3.15913 18.3346 5.00008 18.3346H15.0001C16.841 18.3346 18.3334 16.8423 18.3334 15.0013V8.33464M15.8334 1.66797V6.66797M18.3334 4.16797L13.3334 4.16797M18.3334 11.668L15.8842 9.90456C14.6116 8.98825 12.8723 9.08295 11.7067 10.132L8.29349 13.2039C7.12784 14.253 5.38858 14.3477 4.11592 13.4314L1.66675 11.668M9.16675 7.08464C9.16675 8.23523 8.23401 9.16797 7.08341 9.16797C5.93282 9.16797 5.00008 8.23523 5.00008 7.08464C5.00008 5.93404 5.93282 5.0013 7.08341 5.0013C8.23401 5.0013 9.16675 5.93404 9.16675 7.08464Z" stroke="#111827" stroke-width="1.5" stroke-linecap="round"/>
</svg>
