<svg width="24" height="24" viewBox="0 0 24 24" fill="none" xmlns="http://www.w3.org/2000/svg">
<path d="M3 12C3 8.25027 3 6.3754 3.95491 5.06107C4.26331 4.6366 4.6366 4.26331 5.06107 3.95491C6.3754 3 8.25027 3 12 3C15.7497 3 17.6246 3 18.9389 3.95491C19.3634 4.26331 19.7367 4.6366 20.0451 5.06107C21 6.3754 21 8.25027 21 12V14C21 17.7497 21 19.6246 20.0451 20.9389C19.7367 21.3634 19.3634 21.7367 18.9389 22.0451C17.6246 23 15.7497 23 12 23C8.25027 23 6.3754 23 5.06107 22.0451C4.6366 21.7367 4.26331 21.3634 3.95491 20.9389C3 19.6246 3 17.7497 3 14V12Z" stroke="#000929" stroke-width="1.5" stroke-linecap="round" stroke-linejoin="round"/>
<path d="M16 8H8M13.5 13H10.5" stroke="#000929" stroke-width="1.5" stroke-linecap="round" stroke-linejoin="round"/>
</svg>
