<svg width="20" height="20" viewBox="0 0 20 20" fill="none" xmlns="http://www.w3.org/2000/svg">
<path fill-rule="evenodd" clip-rule="evenodd" d="M6.9905 2.5H13.0097C14.6391 2.5 16.0298 3.67804 16.2976 5.28534L17.6865 13.6187C18.0252 15.6504 16.4583 17.5 14.3985 17.5H5.60161C3.54182 17.5 1.97501 15.6504 2.31363 13.6187L3.70252 5.28534C3.97041 3.67804 5.36104 2.5 6.9905 2.5ZM10.0001 8.95833C11.726 8.95833 13.1251 7.55922 13.1251 5.83333V5C13.1251 4.65482 12.8453 4.375 12.5001 4.375C12.1549 4.375 11.8751 4.65482 11.8751 5V5.83333C11.8751 6.86887 11.0356 7.70833 10.0001 7.70833C8.96455 7.70833 8.12508 6.86887 8.12508 5.83333V5C8.12508 4.65482 7.84526 4.375 7.50008 4.375C7.1549 4.375 6.87508 4.65482 6.87508 5V5.83333C6.87508 7.55922 8.27419 8.95833 10.0001 8.95833Z" fill="#0035F0"/>
</svg>
