<svg width="18" height="18" viewBox="0 0 18 18" fill="none" xmlns="http://www.w3.org/2000/svg">
<path d="M9 16.5C5.47918 16.5 2.625 13.6458 2.625 10.125C2.625 6.60418 5.47918 3.75 9 3.75C12.5208 3.75 15.375 6.60418 15.375 10.125C15.375 10.5089 15.3411 10.8848 15.2761 11.25" stroke="#6C6B6B" stroke-width="1.25" stroke-linecap="round"/>
<path d="M11.25 1.81055C10.5348 1.60825 9.78002 1.5 9 1.5C8.21998 1.5 7.46525 1.60825 6.75 1.81055" stroke="#6C6B6B" stroke-width="1.25" stroke-linecap="round"/>
<path d="M10.5 15L11.6278 15.9023C12.0457 16.2366 12.6527 16.1826 13.0051 15.7799L15 13.5" stroke="#6C6B6B" stroke-width="1.25" stroke-linecap="round" stroke-linejoin="round"/>
<path d="M10.125 10.5C10.125 11.1213 9.62132 11.625 9 11.625C8.37868 11.625 7.875 11.1213 7.875 10.5C7.875 9.87868 8.37868 9.375 9 9.375C9.62132 9.375 10.125 9.87868 10.125 10.5Z" stroke="#6C6B6B" stroke-width="1.25"/>
<path d="M9 9V6.75" stroke="#6C6B6B" stroke-width="1.25" stroke-linecap="round" stroke-linejoin="round"/>
</svg>
